<?xml version="1.0" encoding="UTF-8"?>
<svg width="1200" height="800" viewBox="0 0 1200 800" fill="none" xmlns="http://www.w3.org/2000/svg">
  <!-- Background gradient -->
  <rect width="1200" height="800" fill="url(#paint0_linear)"/>
  
  <!-- Array boxes -->
  <g opacity="0.1">
    <!-- First row -->
    <rect x="200" y="200" width="80" height="80" rx="8" stroke="#6366F1" stroke-width="4"/>
    <rect x="300" y="200" width="80" height="80" rx="8" stroke="#6366F1" stroke-width="4"/>
    <rect x="400" y="200" width="80" height="80" rx="8" stroke="#6366F1" stroke-width="4"/>
    <rect x="500" y="200" width="80" height="80" rx="8" stroke="#6366F1" stroke-width="4"/>
    
    <!-- Second row -->
    <rect x="200" y="300" width="80" height="80" rx="8" stroke="#8B5CF6" stroke-width="4"/>
    <rect x="300" y="300" width="80" height="80" rx="8" stroke="#8B5CF6" stroke-width="4"/>
    <rect x="400" y="300" width="80" height="80" rx="8" stroke="#8B5CF6" stroke-width="4"/>
    <rect x="500" y="300" width="80" height="80" rx="8" stroke="#8B5CF6" stroke-width="4"/>
    
    <!-- Third row -->
    <rect x="200" y="400" width="80" height="80" rx="8" stroke="#EC4899" stroke-width="4"/>
    <rect x="300" y="400" width="80" height="80" rx="8" stroke="#EC4899" stroke-width="4"/>
    <rect x="400" y="400" width="80" height="80" rx="8" stroke="#EC4899" stroke-width="4"/>
    <rect x="500" y="400" width="80" height="80" rx="8" stroke="#EC4899" stroke-width="4"/>
  </g>

  <!-- Array indices -->
  <g opacity="0.1" fill="#6366F1">
    <text x="220" y="180" font-family="monospace" font-size="24">[0]</text>
    <text x="320" y="180" font-family="monospace" font-size="24">[1]</text>
    <text x="420" y="180" font-family="monospace" font-size="24">[2]</text>
    <text x="520" y="180" font-family="monospace" font-size="24">[3]</text>
  </g>

  <!-- Gradient definitions -->
  <defs>
    <linearGradient id="paint0_linear" x1="0" y1="0" x2="1200" y2="800" gradientUnits="userSpaceOnUse">
      <stop offset="0%" stop-color="#1E293B"/>
      <stop offset="100%" stop-color="#0F172A"/>
    </linearGradient>
  </defs>
</svg>
