<svg width="200" height="40" viewBox="0 0 200 40" fill="none" xmlns="http://www.w3.org/2000/svg">
  <!-- Modern gradient background rectangle -->
  <rect width="40" height="40" rx="8" fill="url(#gradient)" />
  
  <!-- Flowing interconnected lines -->
  <path d="M12 20C12 15 16 12 20 15C24 18 28 15 28 20" 
        stroke="#E5DEFF" strokeWidth="2.5" strokeLinecap="round"/>
  <path d="M15 25C15 22 18 20 20 22C22 24 25 22 25 25" 
        stroke="#D6BCFA" strokeWidth="2.5" strokeLinecap="round"/>
  <path d="M18 17C18 14 20 13 20 15C20 17 22 16 22 19" 
        stroke="#9b87f5" strokeWidth="2" strokeLinecap="round"/>
        
  <!-- Decorative flowing elements -->
  <path d="M14 28C16 26 18 27 20 28C22 29 24 28 26 26" 
        stroke="#8B5CF6" strokeWidth="2" strokeLinecap="round" opacity="0.8"/>
  
  <!-- Accent dots -->
  <circle cx="20" cy="12" r="1.5" fill="#E5DEFF" opacity="0.9"/>
  <circle cx="16" cy="16" r="1" fill="#9b87f5" opacity="0.8"/>
  <circle cx="24" cy="16" r="1" fill="#7E69AB" opacity="0.8"/>
  
  <!-- Text "Prompt Central" with dark purple color -->
  <text x="50" y="26" fill="#6E59A5" font-family="system-ui" font-size="20" font-weight="700">Prompt Central</text>
  
  <!-- Enhanced gradient definition -->
  <defs>
    <linearGradient id="gradient" x1="0" y1="0" x2="40" y2="40" gradientUnits="userSpaceOnUse">
      <stop offset="0%" stopColor="#9b87f5"/>
      <stop offset="50%" stopColor="#8B5CF6"/>
      <stop offset="100%" stopColor="#7E69AB"/>
    </linearGradient>
  </defs>
</svg>